<svg xmlns="http://www.w3.org/2000/svg" viewBox="0 0 2331 1034" preserveAspectRatio="xMidYMid" width="2331" height="1034" xmlns:xlink="http://www.w3.org/1999/xlink" style="shape-rendering:auto;display:block;background-position-x:0%;background-position-y:0%;background-size:auto;background-origin:padding-box;background-clip:border-box;background:scroll rgba(0, 0, 0, 0) none  repeat;width:2331px;height:1034px;;animation:none"><g><defs><radialGradient id="lg1-zqqadjumpfc"><stop stop-opacity="1" stop-color="#cbba00" offset="0.9"></stop>


<stop stop-opacity="0" stop-color="#cbba00" offset="1"></stop></radialGradient>


<radialGradient id="lg2-ilfrgwuu0u"><stop stop-opacity="1" stop-color="#2897ff" offset="0.75"></stop>


<stop stop-opacity="0" stop-color="#2897ff" offset="1"></stop></radialGradient>


<radialGradient id="lg3-qrgq9k5nse"><stop stop-opacity="1" stop-color="#d21010" offset="0.4"></stop>


<stop stop-opacity="0" stop-color="#d21010" offset="1"></stop></radialGradient>


<radialGradient id="lgbk-9kiuqy5ptu8"><stop stop-opacity="0" stop-color="#000" offset="0"></stop>


<stop stop-opacity="0.3" stop-color="#000" offset="1"></stop></radialGradient></defs>
<rect fill="url(#lgbk-9kiuqy5ptu8)" height="1034" width="2331" y="0" x="0" style="fill:url('#lgbk-9kiuqy5ptu8');;animation:none"></rect>
<circle opacity="0.987318231597551" fill="url(#lg1-zqqadjumpfc)" r="13.689168690420484" transform="matrix(1,0,0,1,0,426.41119384765625)" cy="0" cx="42.79385943692211" style="filter:hue-rotate(-43deg);fill:url('#lg1-zqqadjumpfc');transform:matrix(1, 0, 0, 1, 0, 426.411);opacity:0.987318;;animation:none"></circle>
<circle opacity="0.8871981941108221" fill="url(#lg1-zqqadjumpfc)" r="9.890944858989766" transform="matrix(1,0,0,1,0,1039.5)" cy="0" cx="2209.5952627774936" style="filter:hue-rotate(-71deg);fill:url('#lg1-zqqadjumpfc');transform:matrix(1, 0, 0, 1, 0, 1039.5);opacity:0.887198;;animation:none"></circle>
<circle opacity="0.44485749113961853" fill="url(#lg2-ilfrgwuu0u)" r="34.98271644923341" transform="matrix(1,0,0,1,0,1067.404541015625)" cy="0" cx="1137.0202709864225" style="filter:hue-rotate(-46deg);fill:url('#lg2-ilfrgwuu0u');transform:matrix(1, 0, 0, 1, 0, 1067.4);opacity:0.444857;;animation:none"></circle>
<circle opacity="0.49578103460781153" fill="url(#lg2-ilfrgwuu0u)" r="49.39166830110577" transform="matrix(1,0,0,1,0,625.514892578125)" cy="0" cx="1829.0245037984382" style="filter:hue-rotate(-44deg);fill:url('#lg2-ilfrgwuu0u');transform:matrix(1, 0, 0, 1, 0, 625.515);opacity:0.495781;;animation:none"></circle>
<circle opacity="0.328289364647984" fill="url(#lg3-qrgq9k5nse)" r="69.4235288123431" transform="matrix(1,0,0,1,0,483.35260009765625)" cy="0" cx="1403.3477303555221" style="filter:hue-rotate(61deg);fill:url('#lg3-qrgq9k5nse');transform:matrix(1, 0, 0, 1, 0, 483.353);opacity:0.328289;;animation:none"></circle>
<circle opacity="0.4509346634989054" fill="url(#lg2-ilfrgwuu0u)" r="47.57696107287821" transform="matrix(1,0,0,1,0,784.3446044921875)" cy="0" cx="1758.394582221224" style="filter:hue-rotate(-40deg);fill:url('#lg2-ilfrgwuu0u');transform:matrix(1, 0, 0, 1, 0, 784.345);opacity:0.450935;;animation:none"></circle>
<circle opacity="0.857507036867489" fill="url(#lg1-zqqadjumpfc)" r="8.974236956833511" transform="matrix(1,0,0,1,0,804.4571533203125)" cy="0" cx="1084.8921861618517" style="filter:hue-rotate(-30deg);fill:url('#lg1-zqqadjumpfc');transform:matrix(1, 0, 0, 1, 0, 804.457);opacity:0.857507;;animation:none"></circle>
<circle opacity="0.4322484487358186" fill="url(#lg2-ilfrgwuu0u)" r="21.90479724813352" transform="matrix(1,0,0,1,0,929.8571166992188)" cy="0" cx="401.74558137027657" style="filter:hue-rotate(50deg);fill:url('#lg2-ilfrgwuu0u');transform:matrix(1, 0, 0, 1, 0, 929.857);opacity:0.432248;;animation:none"></circle>
<circle opacity="0.8043751310722933" fill="url(#lg1-zqqadjumpfc)" r="6.169875806941114" transform="matrix(1,0,0,1,0,184.30535888671875)" cy="0" cx="986.1371448973783" style="filter:hue-rotate(42deg);fill:url('#lg1-zqqadjumpfc');transform:matrix(1, 0, 0, 1, 0, 184.305);opacity:0.804375;;animation:none"></circle>
<circle opacity="0.2817584343886668" fill="url(#lg3-qrgq9k5nse)" r="98.87187680916608" transform="matrix(1,0,0,1,0,706.3880004882812)" cy="0" cx="1468.9503025057036" style="filter:hue-rotate(24deg);fill:url('#lg3-qrgq9k5nse');transform:matrix(1, 0, 0, 1, 0, 706.388);opacity:0.281758;;animation:none"></circle>
<circle opacity="0.4984565112055419" fill="url(#lg2-ilfrgwuu0u)" r="44.69657136634518" transform="matrix(1,0,0,1,0,550.8661499023438)" cy="0" cx="708.1221839183848" style="filter:hue-rotate(-47deg);fill:url('#lg2-ilfrgwuu0u');transform:matrix(1, 0, 0, 1, 0, 550.866);opacity:0.498457;;animation:none"></circle>
<circle opacity="0.4570041889100871" fill="url(#lg2-ilfrgwuu0u)" r="42.96908391141698" transform="matrix(1,0,0,1,0,507.73138427734375)" cy="0" cx="2265.16754716577" style="filter:hue-rotate(-37deg);fill:url('#lg2-ilfrgwuu0u');transform:matrix(1, 0, 0, 1, 0, 507.731);opacity:0.457004;;animation:none"></circle>
<circle opacity="0.32529327615714204" fill="url(#lg3-qrgq9k5nse)" r="39.316773555721674" transform="matrix(1,0,0,1,0,1045.2886962890625)" cy="0" cx="518.5244402856285" style="filter:hue-rotate(-41deg);fill:url('#lg3-qrgq9k5nse');transform:matrix(1, 0, 0, 1, 0, 1045.29);opacity:0.325293;;animation:none"></circle>
<circle opacity="0.4632833007492692" fill="url(#lg2-ilfrgwuu0u)" r="19.755740902936672" transform="matrix(1,0,0,1,0,704.463134765625)" cy="0" cx="2047.032734942617" style="filter:hue-rotate(49deg);fill:url('#lg2-ilfrgwuu0u');transform:matrix(1, 0, 0, 1, 0, 704.463);opacity:0.463283;;animation:none"></circle>
<circle opacity="0.9318477389183125" fill="url(#lg1-zqqadjumpfc)" r="5.9378614381080475" transform="matrix(1,0,0,1,0,851.7738037109375)" cy="0" cx="1418.041795399947" style="filter:hue-rotate(-17deg);fill:url('#lg1-zqqadjumpfc');transform:matrix(1, 0, 0, 1, 0, 851.774);opacity:0.931848;;animation:none"></circle>
<circle opacity="0.8161393143654128" fill="url(#lg1-zqqadjumpfc)" r="12.898273486374393" transform="matrix(1,0,0,1,0,1007.8658447265625)" cy="0" cx="159.8410881240302" style="filter:hue-rotate(71deg);fill:url('#lg1-zqqadjumpfc');transform:matrix(1, 0, 0, 1, 0, 1007.87);opacity:0.816139;;animation:none"></circle>
<circle opacity="0.8720299536691558" fill="url(#lg1-zqqadjumpfc)" r="17.586972653490548" transform="matrix(1,0,0,1,0,180.59967041015625)" cy="0" cx="2065.8166852145164" style="filter:hue-rotate(2deg);fill:url('#lg1-zqqadjumpfc');transform:matrix(1, 0, 0, 1, 0, 180.6);opacity:0.87203;;animation:none"></circle>
<circle opacity="0.49511700460499" fill="url(#lg2-ilfrgwuu0u)" r="47.0418205768318" transform="matrix(1,0,0,1,0,662.1091918945312)" cy="0" cx="581.9731557235862" style="filter:hue-rotate(53deg);fill:url('#lg2-ilfrgwuu0u');transform:matrix(1, 0, 0, 1, 0, 662.109);opacity:0.495117;;animation:none"></circle>
<circle opacity="0.9663267687185872" fill="url(#lg1-zqqadjumpfc)" r="10.150064567752338" transform="matrix(1,0,0,1,0,673.6428833007812)" cy="0" cx="1822.604853052071" style="filter:hue-rotate(67deg);fill:url('#lg1-zqqadjumpfc');transform:matrix(1, 0, 0, 1, 0, 673.643);opacity:0.966327;;animation:none"></circle>
<circle opacity="0.27642411379855286" fill="url(#lg3-qrgq9k5nse)" r="33.109018204146366" transform="matrix(1,0,0,1,0,866.3753662109375)" cy="0" cx="25.93452901143306" style="filter:hue-rotate(56deg);fill:url('#lg3-qrgq9k5nse');transform:matrix(1, 0, 0, 1, 0, 866.375);opacity:0.276424;;animation:none"></circle>
<circle opacity="0.4929281440294926" fill="url(#lg2-ilfrgwuu0u)" r="18.33990339787792" transform="matrix(1,0,0,1,0,983.571044921875)" cy="0" cx="773.5348912642428" style="filter:hue-rotate(-32deg);fill:url('#lg2-ilfrgwuu0u');transform:matrix(1, 0, 0, 1, 0, 983.571);opacity:0.492928;;animation:none"></circle>
<circle opacity="0.9330430925532397" fill="url(#lg1-zqqadjumpfc)" r="6.629955096779376" transform="matrix(1,0,0,1,0,24.46527099609375)" cy="0" cx="2300.5673813015296" style="filter:hue-rotate(-42deg);fill:url('#lg1-zqqadjumpfc');transform:matrix(1, 0, 0, 1, 0, 24.4653);opacity:0.933043;;animation:none"></circle>
<circle opacity="0.40260738667296875" fill="url(#lg2-ilfrgwuu0u)" r="19.486653566861317" transform="matrix(1,0,0,1,0,393.43328857421875)" cy="0" cx="1850.5661698787744" style="filter:hue-rotate(35deg);fill:url('#lg2-ilfrgwuu0u');transform:matrix(1, 0, 0, 1, 0, 393.433);opacity:0.402607;;animation:none"></circle>
<circle opacity="0.9576515366523239" fill="url(#lg1-zqqadjumpfc)" r="13.826395147526558" transform="matrix(1,0,0,1,0,855.6696166992188)" cy="0" cx="216.67981822952717" style="filter:hue-rotate(-62deg);fill:url('#lg1-zqqadjumpfc');transform:matrix(1, 0, 0, 1, 0, 855.67);opacity:0.957652;;animation:none"></circle>
<circle opacity="0.8513564866789388" fill="url(#lg1-zqqadjumpfc)" r="14.541570459705419" transform="matrix(1,0,0,1,0,704.2396240234375)" cy="0" cx="446.02566624061285" style="filter:hue-rotate(58deg);fill:url('#lg1-zqqadjumpfc');transform:matrix(1, 0, 0, 1, 0, 704.24);opacity:0.851357;;animation:none"></circle>
<circle opacity="0.9678781002720855" fill="url(#lg1-zqqadjumpfc)" r="9.289270836743139" transform="matrix(1,0,0,1,0,412.68505859375)" cy="0" cx="453.54497430607114" style="filter:hue-rotate(27deg);fill:url('#lg1-zqqadjumpfc');transform:matrix(1, 0, 0, 1, 0, 412.685);opacity:0.967878;;animation:none"></circle>
<circle opacity="0.8177879187054977" fill="url(#lg1-zqqadjumpfc)" r="14.941972518423906" transform="matrix(1,0,0,1,0,735.09423828125)" cy="0" cx="96.85361447105817" style="filter:hue-rotate(-12deg);fill:url('#lg1-zqqadjumpfc');transform:matrix(1, 0, 0, 1, 0, 735.094);opacity:0.817788;;animation:none"></circle>
<circle opacity="0.4794686784906288" fill="url(#lg2-ilfrgwuu0u)" r="48.44689952801648" transform="matrix(1,0,0,1,0,204.010009765625)" cy="0" cx="138.6789032340108" style="filter:hue-rotate(-19deg);fill:url('#lg2-ilfrgwuu0u');transform:matrix(1, 0, 0, 1, 0, 204.01);opacity:0.479469;;animation:none"></circle>
<circle opacity="0.2730641804795909" fill="url(#lg3-qrgq9k5nse)" r="99.24251129510196" transform="matrix(1,0,0,1,0,647.616943359375)" cy="0" cx="2108.5091630892334" style="filter:hue-rotate(-61deg);fill:url('#lg3-qrgq9k5nse');transform:matrix(1, 0, 0, 1, 0, 647.617);opacity:0.273064;;animation:none"></circle>
<circle opacity="0.8948147229628005" fill="url(#lg1-zqqadjumpfc)" r="7.211098523652531" transform="matrix(1,0,0,1,0,-1.085205078125)" cy="0" cx="714.4612726427339" style="filter:hue-rotate(-58deg);fill:url('#lg1-zqqadjumpfc');transform:matrix(1, 0, 0, 1, 0, -1.08521);opacity:0.894815;;animation:none"></circle>
<circle opacity="0.9192393481455983" fill="url(#lg1-zqqadjumpfc)" r="10.488697521877327" transform="matrix(1,0,0,1,0,186.67529296875)" cy="0" cx="993.47674560185" style="filter:hue-rotate(-7deg);fill:url('#lg1-zqqadjumpfc');transform:matrix(1, 0, 0, 1, 0, 186.675);opacity:0.919239;;animation:none"></circle>
<g></g></g><!-- [ldio] generated by https://loading.io --></svg>